<?xml version="1.0" encoding="UTF-8" standalone="no"?>
<!DOCTYPE svg PUBLIC "-//W3C//DTD SVG 1.1//EN"
 "http://www.w3.org/Graphics/SVG/1.1/DTD/svg11.dtd">
<!-- Generated by graphviz version 2.38.0 (20140413.2041)
 -->
<!-- Title: G Pages: 1 -->
<svg width="682pt" height="647pt"
 viewBox="0.00 0.00 682.00 647.00" xmlns="http://www.w3.org/2000/svg" xmlns:xlink="http://www.w3.org/1999/xlink">
<g id="graph0" class="graph" transform="scale(1 1) rotate(0) translate(4 643)">
<title>G</title>
<polygon fill="white" stroke="none" points="-4,4 -4,-643 678,-643 678,4 -4,4"/>
<g id="clust5" class="cluster"><title>cluster3</title>
<polygon fill="lightgrey" stroke="lightgrey" points="162,-8 162,-83 472,-83 472,-8 162,-8"/>
<text text-anchor="middle" x="317" y="-67.8" font-family="sans-serif" font-size="14.00">logging shards</text>
</g>
<g id="clust2" class="cluster"><title>cluster0</title>
<polygon fill="lightgrey" stroke="lightgrey" points="135,-246 135,-393 277,-393 277,-246 135,-246"/>
<text text-anchor="middle" x="206" y="-377.8" font-family="sans-serif" font-size="14.00">billing</text>
</g>
<g id="clust1" class="cluster"><title>cluster00</title>
<polygon fill="lightgrey" stroke="lightgrey" points="92,-556 92,-631 666,-631 666,-556 92,-556"/>
<text text-anchor="middle" x="379" y="-615.8" font-family="sans-serif" font-size="14.00">browser</text>
</g>
<g id="clust4" class="cluster"><title>cluster2</title>
<polygon fill="lightgrey" stroke="lightgrey" points="8,-91 8,-238 150,-238 150,-91 8,-91"/>
<text text-anchor="middle" x="79" y="-222.8" font-family="sans-serif" font-size="14.00">shipping</text>
</g>
<g id="clust3" class="cluster"><title>cluster1</title>
<polygon fill="lightgrey" stroke="lightgrey" points="308,-401 308,-548 450,-548 450,-401 308,-401"/>
<text text-anchor="middle" x="379" y="-532.8" font-family="sans-serif" font-size="14.00">customers</text>
</g>
<!-- w0 -->
<g id="node1" class="node"><title>w0</title>
<ellipse fill="white" stroke="white" cx="631" cy="-582" rx="27" ry="18"/>
<text text-anchor="middle" x="631" y="-578.3" font-family="sans-serif" font-size="14.00">w0</text>
</g>
<!-- fanoutc -->
<g id="node12" class="node"><title>fanoutc</title>
<ellipse fill="white" stroke="white" cx="379" cy="-499" rx="44.393" ry="18"/>
<text text-anchor="middle" x="379" y="-495.3" font-family="sans-serif" font-size="14.00">fanoutc</text>
</g>
<!-- w0&#45;&gt;fanoutc -->
<g id="edge29" class="edge"><title>w0&#45;&gt;fanoutc</title>
<path fill="none" stroke="black" d="M614.171,-567.481C608.361,-563.325 601.639,-559.047 595,-556 541.269,-531.336 474.837,-516.177 429.943,-507.955"/>
<polygon fill="black" stroke="black" points="430.319,-504.467 419.86,-506.159 429.091,-511.359 430.319,-504.467"/>
</g>
<!-- w1 -->
<g id="node2" class="node"><title>w1</title>
<ellipse fill="white" stroke="white" cx="559" cy="-582" rx="27" ry="18"/>
<text text-anchor="middle" x="559" y="-578.3" font-family="sans-serif" font-size="14.00">w1</text>
</g>
<!-- w1&#45;&gt;fanoutc -->
<g id="edge30" class="edge"><title>w1&#45;&gt;fanoutc</title>
<path fill="none" stroke="black" d="M541.948,-567.931C536.124,-563.804 529.449,-559.431 523,-556 490.554,-538.738 451.591,-523.913 422.38,-513.86"/>
<polygon fill="black" stroke="black" points="423.466,-510.533 412.872,-510.638 421.219,-517.162 423.466,-510.533"/>
</g>
<!-- w2 -->
<g id="node3" class="node"><title>w2</title>
<ellipse fill="white" stroke="white" cx="487" cy="-582" rx="27" ry="18"/>
<text text-anchor="middle" x="487" y="-578.3" font-family="sans-serif" font-size="14.00">w2</text>
</g>
<!-- w2&#45;&gt;fanoutc -->
<g id="edge31" class="edge"><title>w2&#45;&gt;fanoutc</title>
<path fill="none" stroke="black" d="M469.648,-567.986C452.848,-555.386 427.088,-536.066 407.316,-521.237"/>
<polygon fill="black" stroke="black" points="409.353,-518.389 399.253,-515.189 405.153,-523.989 409.353,-518.389"/>
</g>
<!-- w3 -->
<g id="node4" class="node"><title>w3</title>
<ellipse fill="white" stroke="white" cx="415" cy="-582" rx="27" ry="18"/>
<text text-anchor="middle" x="415" y="-578.3" font-family="sans-serif" font-size="14.00">w3</text>
</g>
<!-- w3&#45;&gt;fanoutc -->
<g id="edge32" class="edge"><title>w3&#45;&gt;fanoutc</title>
<path fill="none" stroke="black" d="M407.715,-564.608C402.803,-553.557 396.218,-538.741 390.593,-526.084"/>
<polygon fill="black" stroke="black" points="393.782,-524.641 386.522,-516.925 387.385,-527.484 393.782,-524.641"/>
</g>
<!-- w4 -->
<g id="node5" class="node"><title>w4</title>
<ellipse fill="white" stroke="white" cx="343" cy="-582" rx="27" ry="18"/>
<text text-anchor="middle" x="343" y="-578.3" font-family="sans-serif" font-size="14.00">w4</text>
</g>
<!-- w4&#45;&gt;fanoutc -->
<g id="edge33" class="edge"><title>w4&#45;&gt;fanoutc</title>
<path fill="none" stroke="black" d="M350.285,-564.608C355.197,-553.557 361.782,-538.741 367.407,-526.084"/>
<polygon fill="black" stroke="black" points="370.615,-527.484 371.478,-516.925 364.218,-524.641 370.615,-527.484"/>
</g>
<!-- w5 -->
<g id="node6" class="node"><title>w5</title>
<ellipse fill="white" stroke="white" cx="271" cy="-582" rx="27" ry="18"/>
<text text-anchor="middle" x="271" y="-578.3" font-family="sans-serif" font-size="14.00">w5</text>
</g>
<!-- w5&#45;&gt;fanoutc -->
<g id="edge34" class="edge"><title>w5&#45;&gt;fanoutc</title>
<path fill="none" stroke="black" d="M288.352,-567.986C305.152,-555.386 330.912,-536.066 350.684,-521.237"/>
<polygon fill="black" stroke="black" points="352.847,-523.989 358.747,-515.189 348.647,-518.389 352.847,-523.989"/>
</g>
<!-- w6 -->
<g id="node7" class="node"><title>w6</title>
<ellipse fill="white" stroke="white" cx="199" cy="-582" rx="27" ry="18"/>
<text text-anchor="middle" x="199" y="-578.3" font-family="sans-serif" font-size="14.00">w6</text>
</g>
<!-- w6&#45;&gt;fanoutc -->
<g id="edge35" class="edge"><title>w6&#45;&gt;fanoutc</title>
<path fill="none" stroke="black" d="M216.052,-567.931C221.876,-563.804 228.551,-559.431 235,-556 267.446,-538.738 306.409,-523.913 335.62,-513.86"/>
<polygon fill="black" stroke="black" points="336.781,-517.162 345.128,-510.638 334.534,-510.533 336.781,-517.162"/>
</g>
<!-- w7 -->
<g id="node8" class="node"><title>w7</title>
<ellipse fill="white" stroke="white" cx="127" cy="-582" rx="27" ry="18"/>
<text text-anchor="middle" x="127" y="-578.3" font-family="sans-serif" font-size="14.00">w7</text>
</g>
<!-- w7&#45;&gt;fanoutc -->
<g id="edge36" class="edge"><title>w7&#45;&gt;fanoutc</title>
<path fill="none" stroke="black" d="M143.829,-567.481C149.639,-563.325 156.361,-559.047 163,-556 216.731,-531.336 283.163,-516.177 328.057,-507.955"/>
<polygon fill="black" stroke="black" points="328.909,-511.359 338.14,-506.159 327.681,-504.467 328.909,-511.359"/>
</g>
<!-- fanoutb -->
<g id="node9" class="node"><title>fanoutb</title>
<ellipse fill="white" stroke="red" cx="224" cy="-344" rx="45.4919" ry="18"/>
<text text-anchor="middle" x="224" y="-340.3" font-family="sans-serif" font-size="14.00">fanoutb</text>
</g>
<!-- b0 -->
<g id="node10" class="node"><title>b0</title>
<ellipse fill="white" stroke="white" cx="170" cy="-272" rx="27" ry="18"/>
<text text-anchor="middle" x="170" y="-268.3" font-family="sans-serif" font-size="14.00">b0</text>
</g>
<!-- fanoutb&#45;&gt;b0 -->
<g id="edge1" class="edge"><title>fanoutb&#45;&gt;b0</title>
<path fill="none" stroke="black" d="M211.203,-326.411C204.352,-317.53 195.796,-306.439 188.258,-296.668"/>
<polygon fill="black" stroke="black" points="190.845,-294.291 181.966,-288.511 185.302,-298.567 190.845,-294.291"/>
</g>
<!-- b1 -->
<g id="node11" class="node"><title>b1</title>
<ellipse fill="white" stroke="white" cx="242" cy="-272" rx="27" ry="18"/>
<text text-anchor="middle" x="242" y="-268.3" font-family="sans-serif" font-size="14.00">b1</text>
</g>
<!-- fanoutb&#45;&gt;b1 -->
<g id="edge2" class="edge"><title>fanoutb&#45;&gt;b1</title>
<path fill="none" stroke="black" d="M228.357,-326.055C230.391,-318.145 232.861,-308.54 235.137,-299.688"/>
<polygon fill="black" stroke="black" points="238.582,-300.346 237.683,-289.789 231.803,-298.602 238.582,-300.346"/>
</g>
<!-- fanouts -->
<g id="node15" class="node"><title>fanouts</title>
<ellipse fill="white" stroke="white" cx="98" cy="-189" rx="44.393" ry="18"/>
<text text-anchor="middle" x="98" y="-185.3" font-family="sans-serif" font-size="14.00">fanouts</text>
</g>
<!-- b0&#45;&gt;fanouts -->
<g id="edge7" class="edge"><title>b0&#45;&gt;fanouts</title>
<path fill="none" stroke="black" d="M156.794,-256.143C146.274,-244.308 131.341,-227.509 119.158,-213.803"/>
<polygon fill="black" stroke="black" points="121.616,-211.3 112.357,-206.151 116.385,-215.951 121.616,-211.3"/>
</g>
<!-- l0 -->
<g id="node18" class="node"><title>l0</title>
<ellipse fill="white" stroke="white" cx="317" cy="-34" rx="42.7926" ry="18"/>
<text text-anchor="middle" x="317" y="-30.3" font-family="sans-serif" font-size="14.00">logging</text>
</g>
<!-- b0&#45;&gt;l0 -->
<g id="edge11" class="edge"><title>b0&#45;&gt;l0</title>
<path fill="none" stroke="grey" d="M183.136,-255.932C187.713,-250.431 192.761,-244.068 197,-238 239.581,-177.05 282.139,-100.414 303.277,-61.0224"/>
<polygon fill="grey" stroke="grey" points="306.556,-62.3123 308.177,-51.8421 300.38,-59.0164 306.556,-62.3123"/>
</g>
<!-- l1 -->
<g id="node19" class="node"><title>l1</title>
<ellipse fill="white" stroke="white" cx="421" cy="-34" rx="42.7926" ry="18"/>
<text text-anchor="middle" x="421" y="-30.3" font-family="sans-serif" font-size="14.00">logging</text>
</g>
<!-- b0&#45;&gt;l1 -->
<g id="edge12" class="edge"><title>b0&#45;&gt;l1</title>
<path fill="none" stroke="grey" d="M186.892,-257.615C192.706,-253.467 199.414,-249.161 206,-246 217.283,-240.584 222.369,-244.605 233,-238 309.947,-190.196 375.549,-102.66 404.763,-59.8726"/>
<polygon fill="grey" stroke="grey" points="407.752,-61.7009 410.436,-51.4518 401.946,-57.79 407.752,-61.7009"/>
</g>
<!-- l2 -->
<g id="node20" class="node"><title>l2</title>
<ellipse fill="white" stroke="white" cx="213" cy="-34" rx="42.7926" ry="18"/>
<text text-anchor="middle" x="213" y="-30.3" font-family="sans-serif" font-size="14.00">logging</text>
</g>
<!-- b0&#45;&gt;l2 -->
<g id="edge13" class="edge"><title>b0&#45;&gt;l2</title>
<path fill="none" stroke="grey" d="M173.092,-254.027C180.466,-213.559 199.131,-111.119 208.074,-62.0335"/>
<polygon fill="grey" stroke="grey" points="211.528,-62.6013 209.878,-52.1359 204.642,-61.3465 211.528,-62.6013"/>
</g>
<!-- b1&#45;&gt;fanouts -->
<g id="edge8" class="edge"><title>b1&#45;&gt;fanouts</title>
<path fill="none" stroke="black" d="M224.355,-258.074C218.606,-254.046 212.125,-249.694 206,-246 182.84,-232.033 155.828,-218.028 134.612,-207.517"/>
<polygon fill="black" stroke="black" points="136.124,-204.36 125.605,-203.091 133.037,-210.642 136.124,-204.36"/>
</g>
<!-- b1&#45;&gt;l0 -->
<g id="edge14" class="edge"><title>b1&#45;&gt;l0</title>
<path fill="none" stroke="grey" d="M265.614,-263.021C277.341,-257.793 290.559,-249.717 298,-238 332.652,-183.437 327.536,-103.428 321.755,-62.0355"/>
<polygon fill="grey" stroke="grey" points="325.215,-61.5086 320.256,-52.1462 318.294,-62.5578 325.215,-61.5086"/>
</g>
<!-- b1&#45;&gt;l1 -->
<g id="edge15" class="edge"><title>b1&#45;&gt;l1</title>
<path fill="none" stroke="grey" d="M269.032,-270.87C319.949,-269.989 427.03,-264.902 450,-238 493.199,-187.407 457.88,-102.511 435.653,-60.3481"/>
<polygon fill="grey" stroke="grey" points="438.723,-58.6659 430.875,-51.5483 432.571,-62.0065 438.723,-58.6659"/>
</g>
<!-- b1&#45;&gt;l2 -->
<g id="edge16" class="edge"><title>b1&#45;&gt;l2</title>
<path fill="none" stroke="grey" d="M236.252,-254.377C234.65,-249.186 233.061,-243.404 232,-238 219.788,-175.771 215.363,-101.22 213.807,-62.0707"/>
<polygon fill="grey" stroke="grey" points="217.302,-61.8729 213.44,-52.0071 210.307,-62.128 217.302,-61.8729"/>
</g>
<!-- c0 -->
<g id="node13" class="node"><title>c0</title>
<ellipse fill="white" stroke="white" cx="343" cy="-427" rx="27" ry="18"/>
<text text-anchor="middle" x="343" y="-423.3" font-family="sans-serif" font-size="14.00">c0</text>
</g>
<!-- fanoutc&#45;&gt;c0 -->
<g id="edge3" class="edge"><title>fanoutc&#45;&gt;c0</title>
<path fill="none" stroke="black" d="M370.285,-481.055C366.023,-472.767 360.803,-462.618 356.075,-453.424"/>
<polygon fill="black" stroke="black" points="359.073,-451.599 351.386,-444.307 352.847,-454.801 359.073,-451.599"/>
</g>
<!-- c1 -->
<g id="node14" class="node"><title>c1</title>
<ellipse fill="white" stroke="white" cx="415" cy="-427" rx="27" ry="18"/>
<text text-anchor="middle" x="415" y="-423.3" font-family="sans-serif" font-size="14.00">c1</text>
</g>
<!-- fanoutc&#45;&gt;c1 -->
<g id="edge4" class="edge"><title>fanoutc&#45;&gt;c1</title>
<path fill="none" stroke="black" d="M387.715,-481.055C391.977,-472.767 397.197,-462.618 401.925,-453.424"/>
<polygon fill="black" stroke="black" points="405.153,-454.801 406.614,-444.307 398.927,-451.599 405.153,-454.801"/>
</g>
<!-- c0&#45;&gt;fanoutb -->
<g id="edge9" class="edge"><title>c0&#45;&gt;fanoutb</title>
<path fill="none" stroke="black" d="M321.907,-415.588C310.152,-409.495 295.423,-401.37 283,-393 271.507,-385.257 259.522,-375.796 249.38,-367.326"/>
<polygon fill="black" stroke="black" points="251.575,-364.599 241.685,-360.798 247.047,-369.937 251.575,-364.599"/>
</g>
<!-- c0&#45;&gt;l0 -->
<g id="edge17" class="edge"><title>c0&#45;&gt;l0</title>
<path fill="none" stroke="grey" d="M346.118,-409.088C351.026,-380.953 360,-322.71 360,-273 360,-273 360,-273 360,-188 360,-142.14 341.874,-91.3344 329.159,-61.3372"/>
<polygon fill="grey" stroke="grey" points="332.292,-59.7674 325.088,-51.9992 325.876,-62.5647 332.292,-59.7674"/>
</g>
<!-- c0&#45;&gt;l1 -->
<g id="edge18" class="edge"><title>c0&#45;&gt;l1</title>
<path fill="none" stroke="grey" d="M360.135,-412.861C403.099,-379.613 512,-293.333 512,-273 512,-273 512,-273 512,-188 512,-135.738 472.294,-85.7611 445.338,-57.8539"/>
<polygon fill="grey" stroke="grey" points="447.647,-55.2123 438.116,-50.5844 442.681,-60.1456 447.647,-55.2123"/>
</g>
<!-- c0&#45;&gt;l2 -->
<g id="edge19" class="edge"><title>c0&#45;&gt;l2</title>
<path fill="none" stroke="grey" d="M337.414,-409.199C317.084,-348.052 246.922,-137.026 221.929,-61.8543"/>
<polygon fill="grey" stroke="grey" points="225.188,-60.5635 218.712,-52.1785 218.545,-62.7721 225.188,-60.5635"/>
</g>
<!-- c1&#45;&gt;fanoutb -->
<g id="edge10" class="edge"><title>c1&#45;&gt;fanoutb</title>
<path fill="none" stroke="black" d="M397.996,-412.839C392.175,-408.707 385.49,-404.353 379,-401 343.905,-382.87 301.583,-368.008 270.037,-358.162"/>
<polygon fill="black" stroke="black" points="270.782,-354.73 260.195,-355.143 268.73,-361.422 270.782,-354.73"/>
</g>
<!-- c1&#45;&gt;l0 -->
<g id="edge20" class="edge"><title>c1&#45;&gt;l0</title>
<path fill="none" stroke="grey" d="M435.504,-415.184C473.269,-393.612 550,-341.369 550,-273 550,-273 550,-273 550,-188 550,-113.031 481.1,-120.077 412,-91 394.083,-83.4604 386.378,-91.7114 369,-83 357.159,-77.064 346.068,-67.6145 337.197,-58.6637"/>
<polygon fill="grey" stroke="grey" points="339.706,-56.2233 330.298,-51.3503 334.614,-61.0264 339.706,-56.2233"/>
</g>
<!-- c1&#45;&gt;l1 -->
<g id="edge21" class="edge"><title>c1&#45;&gt;l1</title>
<path fill="none" stroke="grey" d="M441.552,-423.573C479.684,-419.533 547.22,-410.128 564,-393 602.062,-354.147 588,-327.39 588,-273 588,-273 588,-273 588,-188 588,-143.589 593.286,-124.387 564,-91 540.362,-64.0511 502.109,-49.9626 471.114,-42.6594"/>
<polygon fill="grey" stroke="grey" points="471.85,-39.2377 461.333,-40.5189 470.353,-46.0759 471.85,-39.2377"/>
</g>
<!-- c1&#45;&gt;l2 -->
<g id="edge22" class="edge"><title>c1&#45;&gt;l2</title>
<path fill="none" stroke="grey" d="M411.882,-409.088C406.974,-380.953 398,-322.71 398,-273 398,-273 398,-273 398,-188 398,-112.688 322.268,-131.911 265,-83 255.701,-75.0583 245.773,-66.0363 237.11,-57.9744"/>
<polygon fill="grey" stroke="grey" points="239.253,-55.186 229.564,-50.8992 234.465,-60.2924 239.253,-55.186"/>
</g>
<!-- s0 -->
<g id="node16" class="node"><title>s0</title>
<ellipse fill="white" stroke="white" cx="43" cy="-117" rx="27" ry="18"/>
<text text-anchor="middle" x="43" y="-113.3" font-family="sans-serif" font-size="14.00">s0</text>
</g>
<!-- fanouts&#45;&gt;s0 -->
<g id="edge5" class="edge"><title>fanouts&#45;&gt;s0</title>
<path fill="none" stroke="black" d="M85.2437,-171.765C78.1036,-162.677 69.0809,-151.194 61.2092,-141.175"/>
<polygon fill="black" stroke="black" points="63.8646,-138.89 54.9342,-133.189 58.3603,-143.215 63.8646,-138.89"/>
</g>
<!-- s1 -->
<g id="node17" class="node"><title>s1</title>
<ellipse fill="white" stroke="white" cx="115" cy="-117" rx="27" ry="18"/>
<text text-anchor="middle" x="115" y="-113.3" font-family="sans-serif" font-size="14.00">s1</text>
</g>
<!-- fanouts&#45;&gt;s1 -->
<g id="edge6" class="edge"><title>fanouts&#45;&gt;s1</title>
<path fill="none" stroke="black" d="M102.115,-171.055C104.008,-163.261 106.3,-153.822 108.424,-145.079"/>
<polygon fill="black" stroke="black" points="111.846,-145.819 110.805,-135.275 105.043,-144.167 111.846,-145.819"/>
</g>
<!-- s0&#45;&gt;l0 -->
<g id="edge23" class="edge"><title>s0&#45;&gt;l0</title>
<path fill="none" stroke="grey" d="M58.779,-102.17C64.7185,-97.7758 71.7891,-93.4296 79,-91 118.206,-77.7903 226.802,-98.8896 265,-83 277.407,-77.8389 288.705,-68.3261 297.576,-59.1221"/>
<polygon fill="grey" stroke="grey" points="300.303,-61.3247 304.428,-51.5657 295.118,-56.6224 300.303,-61.3247"/>
</g>
<!-- s0&#45;&gt;l1 -->
<g id="edge24" class="edge"><title>s0&#45;&gt;l1</title>
<path fill="none" stroke="grey" d="M58.7584,-102.109C64.696,-97.708 71.7706,-93.374 79,-91 109.626,-80.9433 339.143,-95.1507 369,-83 381.447,-77.9346 392.75,-68.4357 401.614,-59.2163"/>
<polygon fill="grey" stroke="grey" points="404.352,-61.4075 408.459,-51.6412 399.158,-56.7146 404.352,-61.4075"/>
</g>
<!-- s0&#45;&gt;l2 -->
<g id="edge25" class="edge"><title>s0&#45;&gt;l2</title>
<path fill="none" stroke="grey" d="M60.1028,-103.025C65.9304,-98.9047 72.5944,-94.5112 79,-91 108.833,-74.6472 144.443,-59.9756 171.453,-49.7559"/>
<polygon fill="grey" stroke="grey" points="172.843,-52.9729 180.988,-46.1972 170.396,-46.4147 172.843,-52.9729"/>
</g>
<!-- s1&#45;&gt;l0 -->
<g id="edge26" class="edge"><title>s1&#45;&gt;l0</title>
<path fill="none" stroke="grey" d="M141.91,-114.329C173.097,-111.46 225.286,-103.725 265,-83 276.743,-76.8718 287.818,-67.3919 296.704,-58.4704"/>
<polygon fill="grey" stroke="grey" points="299.269,-60.853 303.621,-51.1935 294.195,-56.0303 299.269,-60.853"/>
</g>
<!-- s1&#45;&gt;l1 -->
<g id="edge27" class="edge"><title>s1&#45;&gt;l1</title>
<path fill="none" stroke="grey" d="M142.065,-114.557C198.985,-111.189 329.12,-101.644 369,-83 380.999,-77.3904 392.115,-67.9923 400.962,-58.9917"/>
<polygon fill="grey" stroke="grey" points="403.577,-61.3199 407.83,-51.6165 398.454,-56.5493 403.577,-61.3199"/>
</g>
<!-- s1&#45;&gt;l2 -->
<g id="edge28" class="edge"><title>s1&#45;&gt;l2</title>
<path fill="none" stroke="grey" d="M131.624,-102.259C146.548,-89.9246 168.724,-71.5956 186.158,-57.1854"/>
<polygon fill="grey" stroke="grey" points="188.806,-59.5381 194.284,-50.4694 184.346,-54.1425 188.806,-59.5381"/>
</g>
</g>
</svg>
